<?xml version="1.0" encoding="utf-8"?>
<svg version="1.1" id="Layer_1" xmlns="http://www.w3.org/2000/svg" xmlns:xlink="http://www.w3.org/1999/xlink" x="0px" y="0px"
	 viewBox="0 0 110.06 203.12" style="enable-background:new 0 0 110.06 203.12;" xml:space="preserve">
<path class="st0" d="M56.31,69.86c1,0,1.6-0.5,1.4-1.6l-4.49-26.55c-0.1-0.7-0.5-0.9-0.9-0.9c-0.4,0-0.8,0.2-0.9,0.9l-4.39,26.55
	c-0.2,1,0.4,1.6,1.4,1.6H56.31z M30.36,100c-1,0-1.8-0.7-1.6-1.8l12.28-66.77c0.1-0.7,0.9-1.3,1.5-1.3H62.3c0.8,0,1.4,0.6,1.5,1.3
	l12.48,66.77c0.2,1.1-0.6,1.8-1.6,1.8H64.7c-0.6,0-1.4-0.6-1.5-1.3l-3.19-15.67c-0.2-1-0.7-1.4-1.6-1.4H46.23
	c-0.9,0-1.4,0.4-1.6,1.4L41.84,98.7c-0.1,0.7-0.7,1.3-1.5,1.3H30.36z"/>
<path class="st0" d="M46.93,180.05c-9.18,0-16.07-6.89-16.07-16.17v-37.52c0-9.28,6.89-16.17,16.07-16.17h11.18
	c9.18,0,16.07,6.89,16.07,16.17v7.58c0,0.8-0.7,1.5-1.5,1.5H62.2c-0.8,0-1.5-0.7-1.5-1.5v-4.79c0-5.19-3.19-9.18-8.18-9.18
	c-4.89,0-8.18,3.99-8.18,9.18v31.94c0,5.19,3.29,9.18,8.18,9.18c4.99,0,8.18-3.99,8.18-9.18v-4.79c0-0.8,0.7-1.5,1.5-1.5h10.48
	c0.8,0,1.5,0.7,1.5,1.5v7.58c0,9.28-6.89,16.17-16.07,16.17H46.93z"/>
</svg>
